<svg xmlns="http://www.w3.org/2000/svg" xmlns:xlink="http://www.w3.org/1999/xlink" viewBox="0 0 2861.93 442.85"><defs><style>.cls-1{fill:url(#未命名的渐变_85);}.cls-2{fill:#221f20;}.cls-3{fill:#2d2e30;}.cls-3,.cls-4,.cls-5,.cls-8,.cls-9{fill-rule:evenodd;}.cls-4{fill:url(#未命名的渐变_13);}.cls-5{fill:url(#未命名的渐变_13-2);}.cls-6{fill:url(#未命名的渐变_85-2);}.cls-7{fill:url(#未命名的渐变_85-3);}.cls-8{fill:url(#未命名的渐变_13-3);}.cls-9{fill:url(#未命名的渐变_85-4);}.cls-10{fill:url(#未命名的渐变_85-5);}.cls-11{fill:url(#未命名的渐变_85-6);}.cls-12{fill:url(#未命名的渐变_85-7);}</style><linearGradient id="未命名的渐变_85" x1="2662.41" y1="40.58" x2="2743.57" y2="40.58" gradientUnits="userSpaceOnUse"><stop offset="0" stop-color="#7e81be"/><stop offset="1" stop-color="#52abd0"/></linearGradient><linearGradient id="未命名的渐变_13" x1="115.96" y1="19.06" x2="38.34" y2="67.19" gradientUnits="userSpaceOnUse"><stop offset="0" stop-color="#040000" stop-opacity="0"/><stop offset="1" stop-color="#040000"/></linearGradient><linearGradient id="未命名的渐变_13-2" x1="191.21" y1="160.65" x2="113.58" y2="208.79" xlink:href="#未命名的渐变_13"/><linearGradient id="未命名的渐变_85-2" x1="141.05" y1="349.94" x2="141.05" y2="82.74" xlink:href="#未命名的渐变_85"/><linearGradient id="未命名的渐变_85-3" x1="234.15" y1="390.06" x2="484.3" y2="57.28" xlink:href="#未命名的渐变_85"/><linearGradient id="未命名的渐变_13-3" x1="-3407.73" y1="34.47" x2="-3466.87" y2="3.33" gradientTransform="matrix(-1, 0, 0, 1, -3152.63, 0)" xlink:href="#未命名的渐变_13"/><linearGradient id="未命名的渐变_85-4" x1="271.96" y1="109.95" x2="493.19" y2="109.95" xlink:href="#未命名的渐变_85"/><linearGradient id="未命名的渐变_85-5" x1="696.3" y1="55.27" x2="730.24" y2="55.27" xlink:href="#未命名的渐变_85"/><linearGradient id="未命名的渐变_85-6" x1="1292.73" y1="75.73" x2="1378.31" y2="75.73" xlink:href="#未命名的渐变_85"/><linearGradient id="未命名的渐变_85-7" x1="1754.5" y1="355.62" x2="1822.56" y2="355.62" xlink:href="#未命名的渐变_85"/></defs><g id="图层_2" data-name="图层 2"><g id="图层_1-2" data-name="图层 1"><circle class="cls-1" cx="2702.99" cy="40.58" r="40.58"/><path class="cls-2" d="M780.19,389.65H713.27V55.27H847.12a130.78,130.78,0,0,1,35.44,4.78,133.44,133.44,0,0,1,31.83,13.53A135,135,0,0,1,976,153.67,133.66,133.66,0,0,1,970.24,241,134.27,134.27,0,0,1,899,312.24a129.88,129.88,0,0,1-51.88,10.49H780.19Zm0-267.46V256h66.93A64.45,64.45,0,0,0,873,250.79a67.12,67.12,0,0,0,35.56-35.67,67,67,0,0,0,0-52A67.09,67.09,0,0,0,873,127.44a64.45,64.45,0,0,0-25.88-5.25Z"/><path class="cls-2" d="M1255,389.65h-15.39l-24.72-34.27a204.54,204.54,0,0,1-19.23,15.27A142.64,142.64,0,0,1,1174.27,383a130.63,130.63,0,0,1-23,8.28,95.55,95.55,0,0,1-23.9,3,137.84,137.84,0,0,1-49.55-8.86,117.63,117.63,0,0,1-40.57-25.77q-17.38-16.9-27.4-41.39t-10-55.73q0-29.15,10-53.52a127.26,127.26,0,0,1,27.4-41.85A123.65,123.65,0,0,1,1077.85,140a127.43,127.43,0,0,1,49.55-9.67,97,97,0,0,1,24,3,124.6,124.6,0,0,1,23.08,8.39,144.36,144.36,0,0,1,21.34,12.59,175.85,175.85,0,0,1,19,15.63l24.72-29.62H1255Zm-64.12-127.08a66.22,66.22,0,0,0-5-25.3,72.78,72.78,0,0,0-13.64-21.69A67.84,67.84,0,0,0,1152,200.43a54.68,54.68,0,0,0-24.6-5.72,68.13,68.13,0,0,0-24.6,4.43,56.12,56.12,0,0,0-20,13.06,61.26,61.26,0,0,0-13.41,21.34q-4.9,12.71-4.9,29t4.9,29a61.07,61.07,0,0,0,13.41,21.34,56.12,56.12,0,0,0,20,13.06,68.13,68.13,0,0,0,24.6,4.43,54.68,54.68,0,0,0,24.6-5.72,67.67,67.67,0,0,0,20.17-15.15,72.78,72.78,0,0,0,13.64-21.69A66.18,66.18,0,0,0,1190.83,262.57Z"/><path class="cls-2" d="M1367.58,389.65h-64.12V139.92h64.12Z"/><path class="cls-2" d="M1479.74,389.65h-63.66V139.92h15.39l21,29.61A112.59,112.59,0,0,1,1528,140.38h56.2v63.43H1528a47.92,47.92,0,0,0-48.27,48.27Z"/><path class="cls-2" d="M2223.59,329.18a37.77,37.77,0,0,0,7,2.83c2.4.69,4.82,1.26,7.27,1.73a64.71,64.71,0,0,0,18.1.94,65.94,65.94,0,0,0,17.24-3.92,59.91,59.91,0,0,0,15.4-8.5,58.61,58.61,0,0,0,12.26-12.65l37.34,53.12a123,123,0,0,1-24.12,17.59,129.55,129.55,0,0,1-27.59,11.43,127.56,127.56,0,0,1-29.63,4.76,132.57,132.57,0,0,1-30.54-2.28,130.4,130.4,0,0,1-46.91-18.56,125.48,125.48,0,0,1-34.92-33.44,123,123,0,0,1-19.4-44.54q-5.49-24.72-.26-52.1,5.34-28,19.62-49.33A119.74,119.74,0,0,1,2179,161.88a124.27,124.27,0,0,1,44.7-17.78,133,133,0,0,1,50.4.23A130.22,130.22,0,0,1,2350.8,190a124.19,124.19,0,0,1,16,25.37ZM2279.37,211a37.89,37.89,0,0,0-8.21-3.62,84,84,0,0,0-8.74-2.13,65.62,65.62,0,0,0-25-.08,58.57,58.57,0,0,0-22.17,9.15,61.77,61.77,0,0,0-17,17.69,71.17,71.17,0,0,0-9.89,25.68q-.63,3.32-1.09,7.57a85.76,85.76,0,0,0-.47,8.72,84.17,84.17,0,0,0,.37,8.65,30.3,30.3,0,0,0,1.62,7.63Z"/><path class="cls-2" d="M2525.68,389.65H2380.17V326.23h145.51a15.91,15.91,0,0,0,15.85-15.86q0-6.75-4.66-8.86a27.12,27.12,0,0,0-11.19-2.1h-66.23a76.92,76.92,0,0,1-31-6.29,79.78,79.78,0,0,1-42.09-42.44,80.92,80.92,0,0,1,0-62,78.66,78.66,0,0,1,42.09-42.09,78,78,0,0,1,31-6.18h129v63.43h-129a15.91,15.91,0,0,0-15.85,15.85,15.92,15.92,0,0,0,4.66,11.55,15.07,15.07,0,0,0,11.19,4.78h66.23a86.19,86.19,0,0,1,30.78,5.48,77.8,77.8,0,0,1,25.18,15.27A71.81,71.81,0,0,1,2605,310.37a76,76,0,0,1-6.3,30.9,82.65,82.65,0,0,1-17,25.18,78.41,78.41,0,0,1-25.18,17A77.49,77.49,0,0,1,2525.68,389.65Z"/><path class="cls-2" d="M2702.43,389.65h-63.66V40.58h63.66v110.3A74.59,74.59,0,0,1,2726,138.63,86,86,0,0,1,2750.7,135a108.36,108.36,0,0,1,43.37,8.74,110.47,110.47,0,0,1,35.33,24,115,115,0,0,1,23.78,35.68,109.22,109.22,0,0,1,8.75,43.49v142.7H2797.8V247h.47a46.88,46.88,0,0,0-3.73-18.54,48.06,48.06,0,0,0-25.42-25.53,45.85,45.85,0,0,0-18.42-3.74,48.13,48.13,0,0,0-18.89,3.74,47.55,47.55,0,0,0-15.39,10.26,48.06,48.06,0,0,0-10.26,15.27,46.7,46.7,0,0,0-3.73,18.54Z"/><rect class="cls-2" x="2022.17" y="47.58" width="66.47" height="349.76"/><polygon class="cls-2" points="1822.47 48.01 1822.47 47.58 1822.26 47.58 1754.5 47.58 1754.5 293.26 1822.47 293.26 1822.47 189.07 1922.55 397.34 1996.04 237.41 1996.04 91.76 1922.55 250.31 1822.47 48.01"/><polygon class="cls-3" points="150.22 5.36 89.97 5.36 2.54 5.36 32.09 56.54 120.82 56.54 175.29 146.95 141.07 146.95 169.54 198.14 206.14 198.14 263.54 198.14 150.22 5.36"/><polygon class="cls-4" points="59.1 5.36 77.17 56.54 97.97 56.54 134.47 56.54 115.95 5.36 59.1 5.36"/><polygon class="cls-5" points="134.34 146.95 152.42 198.14 173.21 198.14 209.71 198.14 191.19 146.95 134.34 146.95"/><polygon class="cls-6" points="252.61 442.85 282.1 391.57 59.1 5.36 0 5.36 252.61 442.85"/><circle class="cls-7" cx="296.34" cy="307.33" r="32.8"/><polygon class="cls-3" points="270.26 56.14 300.27 56.14 271.98 4.95 240.71 4.95 181.61 4.95 211.16 56.14 316.02 237.75 345.57 288.94 375.13 237.75 345.57 186.57 270.26 56.14"/><polygon class="cls-8" points="276.49 4.95 305.02 56.54 298.27 56.54 261.78 56.54 219.34 4.95 276.49 4.95"/><path class="cls-9" d="M470.77,5H272l28.29,51.19h0l59.1,106.56,29,52.24L402,191.21l16.15-28L389.25,111,370.94,78l-12.16-21.9H421l-18,31.19,29,52.17L480,56.14l10.17-17.61A22.39,22.39,0,0,0,470.77,5Z"/><circle class="cls-10" cx="713.27" cy="55.27" r="16.97"/><path class="cls-11" d="M1378.31,75.73a40.73,40.73,0,0,1-3.38,16.55,42.75,42.75,0,0,1-9.21,13.41,44.74,44.74,0,0,1-13.65,9.1,42.8,42.8,0,0,1-33.34,0,42.7,42.7,0,0,1-22.62-22.51,41.94,41.94,0,0,1,0-33,42.31,42.31,0,0,1,22.62-22.62,42.8,42.8,0,0,1,33.34,0,44.72,44.72,0,0,1,13.65,9.09,42.38,42.38,0,0,1,9.21,13.53A41,41,0,0,1,1378.31,75.73Z"/><circle class="cls-12" cx="1788.53" cy="355.62" r="34.03"/></g></g></svg>